<?xml version="1.0" encoding="UTF-8"?>
<!DOCTYPE svg PUBLIC "-//W3C//DTD SVG 1.1//EN" "http://www.w3.org/Graphics/SVG/1.1/DTD/svg11.dtd">
<!-- Creator: CorelDRAW -->
<svg xmlns="http://www.w3.org/2000/svg" xml:space="preserve" width="2082.62mm" height="2452.73mm" version="1.1" style="shape-rendering:geometricPrecision; text-rendering:geometricPrecision; image-rendering:optimizeQuality; fill-rule:evenodd; clip-rule:evenodd"
viewBox="0 0 205229.88 241701.67"
 xmlns:xlink="http://www.w3.org/1999/xlink"
 xmlns:xodm="http://www.corel.com/coreldraw/odm/2003">
 <defs>
  <style type="text/css">
   <![CDATA[
    .str1 {stroke:black;stroke-width:4755.74;stroke-miterlimit:22.9256}
    .str0 {stroke:#2B2B2A;stroke-width:19.71;stroke-miterlimit:22.9256}
    .fil1 {fill:none;fill-rule:nonzero}
    .fil0 {fill:#2B2B2A}
   ]]>
  </style>
 </defs>
 <g id="Layer_x0020_1">
  <metadata id="CorelCorpID_0Corel-Layer"/>
  <path class="fil0 str0" d="M102614.94 9.85c34305.13,0 62114.91,27809.78 62114.91,62114.91 0,34305.13 -27809.78,62114.91 -62114.91,62114.91 -34305.13,0 -62114.91,-27809.78 -62114.91,-62114.91 0,-34305.13 27809.78,-62114.91 62114.91,-62114.91zm0 119996.76c15903.82,0 29675.26,-5704.02 40927.44,-16958.06 11252.18,-11252.19 16956.22,-25019.98 16956.22,-40925.66 0,-15900.1 -5704.03,-29669.74 -16958.07,-40925.58 -11253.99,-11250.39 -25023.62,-16954.41 -40925.59,-16954.41 -15905.61,0 -29673.39,5704.02 -40925.65,16956.21 -11252.18,11252.25 -16958.01,25021.83 -16958.01,40923.78 0,15905.68 5705.83,29675.26 16959.86,40927.51 11254.04,11250.32 25023.69,16956.21 40923.79,16956.21z"/>
  <path class="fil1 str1" d="M202366.19 183803.59c-324.49,-4682.14 -980.79,-9789.6 -1946.92,-15183.05 -975.29,-5433.78 -2231.08,-10570.56 -3734.35,-15265.55 -1552.77,-4852.63 -3664.69,-9644.77 -6275.25,-14237.08 -2709.56,-4766.48 -5892.1,-8916.96 -9463.28,-12332.33 -3734.35,-3573.02 -8306.49,-6445.74 -13593.61,-8541.15 -5268.79,-2084.41 -11107.72,-3140.37 -17353.63,-3140.37 -2452.9,0 -4825.14,1006.46 -9406.45,3989.17 -2819.55,1838.76 -6117.58,3965.33 -9798.77,6317.41 -3147.7,2005.59 -7411.86,3884.68 -12678.81,5585.94 -5138.63,1662.76 -10356.07,2506.06 -15505.7,2506.06 -5149.63,0 -10365.24,-843.3 -15509.35,-2506.06 -5261.45,-1699.43 -9525.61,-3578.52 -12669.65,-5584.11 -3646.36,-2330.07 -6946.21,-4456.65 -9807.93,-6321.08 -4575.81,-2982.71 -6949.89,-3989.17 -9402.79,-3989.17 -6247.74,0 -12084.84,1057.79 -17351.79,3144.04 -5283.45,2091.75 -9857.43,4964.46 -13595.44,8541.15 -3569.35,3417.19 -6753.73,7565.86 -9459.62,12330.5 -2608.73,4592.31 -4720.64,9382.61 -6275.25,14238.91 -1501.44,4694.97 -2757.22,9829.94 -3732.51,15263.71 -966.13,5386.11 -1622.43,10495.4 -1946.92,15188.54 -318.99,4597.81 -480.31,9369.77 -480.31,14189.41 0,12543.16 3987.34,22697.57 11850.19,30186.43 7765.68,7389.87 18041.1,11138.88 30536.58,11138.88l115700.62 0c12495.49,0 22767.24,-3747.18 30534.75,-11138.88 7864.68,-7483.36 11852.02,-17639.61 11852.02,-30188.27 -1.83,-4841.64 -164.99,-9617.27 -485.81,-14193.07l-0.01 0zm0 0z"/>
 </g>
</svg>
