<?xml version="1.0" encoding="iso-8859-1"?>
<!-- Generator: Adobe Illustrator 19.0.0, SVG Export Plug-In . SVG Version: 6.00 Build 0)  -->
<svg version="1.1" id="Capa_1" xmlns="http://www.w3.org/2000/svg" xmlns:xlink="http://www.w3.org/1999/xlink" x="0px" y="0px"
	 viewBox="0 0 512 512" style="enable-background:new 0 0 512 512;" xml:space="preserve">
<g>
	<g>
		<path d="M469.333,106.667H362.667V85.333c0-23.531-19.135-42.667-42.667-42.667H192c-23.531,0-42.667,19.135-42.667,42.667v21.333
			H42.667C19.135,106.667,0,125.802,0,149.333v277.333c0,23.531,19.135,42.667,42.667,42.667h426.667
			c23.531,0,42.667-19.135,42.667-42.667V149.333C512,125.802,492.865,106.667,469.333,106.667z M192,85.333h128v21.333H192V85.333z
			 M362.667,330.667c0,5.896-4.771,10.667-10.667,10.667h-53.333v53.333c0,5.896-4.771,10.667-10.667,10.667h-64
			c-5.896,0-10.667-4.771-10.667-10.667v-53.333H160c-5.896,0-10.667-4.771-10.667-10.667v-64c0-5.896,4.771-10.667,10.667-10.667
			h53.333v-53.333c0-5.896,4.771-10.667,10.667-10.667h64c5.896,0,10.667,4.771,10.667,10.667V256H352
			c5.896,0,10.667,4.771,10.667,10.667V330.667z"/>
	</g>
</g>
<g>
</g>
<g>
</g>
<g>
</g>
<g>
</g>
<g>
</g>
<g>
</g>
<g>
</g>
<g>
</g>
<g>
</g>
<g>
</g>
<g>
</g>
<g>
</g>
<g>
</g>
<g>
</g>
<g>
</g>
</svg>
