<svg id="Layer_1_1_" enable-background="new 0 0 64 64" height="512" viewBox="0 0 64 64" width="512" xmlns="http://www.w3.org/2000/svg"><path d="m55.944 27.642c2.616-2.616 4.056-6.094 4.056-9.793 0-7.636-6.213-13.849-13.849-13.849-3.699 0-7.177 1.44-9.793 4.056l-.944.944 19.586 19.586z"/><path d="m9.115 32.136h34.77v10.728h-34.77z" transform="matrix(.707 -.707 .707 .707 -18.755 29.722)"/><path d="m16.615 41.757h34.77v6.485h-34.77z" transform="matrix(.707 -.707 .707 .707 -21.861 37.222)"/><path d="m39.464 8.151h5.071v27.699h-5.071z" transform="matrix(.707 -.707 .707 .707 -3.255 36.142)"/><path d="m1.615 26.757h34.77v6.485h-34.77z" transform="matrix(.707 -.707 .707 .707 -15.648 22.222)"/><path d="m21.586 60-15.293-15.293-2.293-2.293v11.172l6.414 6.414z"/><path d="m4 56.414v3.586h3.586z"/></svg>